# xmcd
#
# Track frame offsets:
#	150
#	30870
#	47995
#	71745
#
# Disc length: 1340 seconds
#
# Revision: 1
# Processed by: cddbd v1.5.1PL0 Copyright (c) Steve Scherf et al.
# Submitted via: audiograbber 1.83.01
#
DISCID=2e053a04
DTITLE=Raul Orellana feat. J.Bonell - Guitarra - The ´89 UK Remixes
DYEAR=1989
DGENRE=
TTITLE0=Casa Del Sol
TTITLE1=Guitarrapella
TTITLE2=Casa De La Arena
TTITLE3=Casa Del Mar
EXTD=
EXTT0=\n
EXTT1=
EXTT2=
EXTT3=
PLAYORDER=
